<svg xmlns="http://www.w3.org/2000/svg" fill="none" viewBox="0 0 536 561">
  <defs/>
  <g opacity=".9">
    <mask id="path-1-inside-1" fill="#fff">
      <path fill-rule="evenodd" d="M453.626 270.167c15.153-20.7 26.3-44.301 32.355-70.232C513.464 82.243 425.656-38.872 289.858-70.583 154.059-102.293 21.694-32.592-5.789 85.101c-6.055 25.93-6.514 52.028-2.095 77.298-15.153 20.7-26.3 44.302-32.355 70.233-27.483 117.692 60.325 238.807 196.123 270.517 135.799 31.711 268.165-37.991 295.647-155.683 6.055-25.931 6.514-52.028 2.095-77.299zm0 0c-15.635-89.423-92.34-168.495-198.219-193.219C149.529 52.225 45.737 89.148-7.884 162.4c15.635 89.424 92.34 168.495 198.219 193.219 105.878 24.724 209.669-12.199 263.291-85.451z" clip-rule="evenodd"/>
    </mask>
    <path fill="url(#paint0_radial)" fill-opacity=".2" fill-rule="evenodd" d="M453.626 270.167c15.153-20.7 26.3-44.301 32.355-70.232C513.464 82.243 425.656-38.872 289.858-70.583 154.059-102.293 21.694-32.592-5.789 85.101c-6.055 25.93-6.514 52.028-2.095 77.298-15.153 20.7-26.3 44.302-32.355 70.233-27.483 117.692 60.325 238.807 196.123 270.517 135.799 31.711 268.165-37.991 295.647-155.683 6.055-25.931 6.514-52.028 2.095-77.299zm0 0c-15.635-89.423-92.34-168.495-198.219-193.219C149.529 52.225 45.737 89.148-7.884 162.4c15.635 89.424 92.34 168.495 198.219 193.219 105.878 24.724 209.669-12.199 263.291-85.451z" clip-rule="evenodd"/>
    <path fill="url(#paint1_linear)" d="M483.986 199.469c-5.99 25.653-17.017 49.003-32.013 69.488l3.306 2.421c15.311-20.915 26.577-44.768 32.697-70.977l-3.99-.932zM289.392-68.588C424.366-37.07 511.151 83.137 483.986 199.47l3.99.932C515.777 81.348 426.947-40.675 290.324-72.578l-.932 3.99zM-3.794 85.566C23.371-30.766 154.418-100.106 289.392-68.588l.932-3.99C153.701-104.48 20.016-34.418-7.784 84.635l3.99.931zm-2.072 76.48c-4.373-25.008-3.918-50.827 2.072-76.48l-3.99-.931c-6.12 26.209-6.583 52.584-2.118 78.117l4.036-.706zm-32.378 71.051c5.99-25.653 17.017-49.002 32.013-69.488l-3.306-2.42c-15.31 20.915-26.577 44.768-32.697 70.977l3.99.931zM156.35 501.154C21.376 469.636-65.41 349.429-38.244 233.097l-3.99-.931c-27.8 119.052 61.03 241.075 197.652 272.978l.932-3.99zM449.536 347C422.371 463.332 291.325 532.672 156.35 501.154l-.932 3.99c136.623 31.903 270.308-38.16 298.108-157.212l-3.99-.932zm2.072-76.48c4.373 25.009 3.918 50.827-2.072 76.48l3.99.932c6.12-26.209 6.583-52.585 2.118-78.117l-4.036.705zM254.942 78.943c105.186 24.563 181.19 103.066 196.666 191.577l4.036-.705c-15.795-90.337-93.2-169.976-199.771-194.862l-.931 3.99zM-6.231 163.61C46.844 91.106 149.755 54.381 254.942 78.943l.931-3.99C149.303 50.068 44.633 87.19-9.537 161.19l3.306 2.42zm197.032 190.014C85.614 329.061 9.61 250.557-5.866 162.046l-4.036.706c15.795 90.336 93.2 169.976 199.771 194.861l.932-3.99zm261.172-84.666c-53.075 72.504-155.986 109.228-261.172 84.666l-.932 3.99c106.57 24.886 211.241-12.237 265.41-86.235l-3.306-2.421z" mask="url(#path-1-inside-1)"/>
  </g>
  <defs>
    <radialGradient id="paint0_radial" cx="0" cy="0" r="1" gradientTransform="rotate(62.563 127.325 -27.812) scale(776.298 665.398)" gradientUnits="userSpaceOnUse">
      <stop stop-color="#B38CFC" stop-opacity="0"/>
      <stop offset="1" stop-color="#B38CFC" stop-opacity=".07"/>
    </radialGradient>
    <linearGradient id="paint1_linear" x1="401.807" x2="127.871" y1="560.404" y2="86.2" gradientUnits="userSpaceOnUse">
      <stop stop-color="#B38CFC" stop-opacity=".2"/>
      <stop offset="1" stop-color="#B38CFC" stop-opacity="0"/>
    </linearGradient>
  </defs>
</svg>