<svg width="81" height="81" viewBox="0 0 81 81" fill="none" xmlns="http://www.w3.org/2000/svg">
  <rect width="80.1483" height="80.1483" rx="40.0741" fill="#F5932F"/>
  <path d="M46.9618 40.5136C48.6361 40.0834 49.8771 38.9435 50.1587 36.6472C50.5488 33.5093 48.1266 31.8883 44.8442 30.8484L45.6722 27.1352C45.6757 27.1235 45.6841 27.1146 45.6868 27.1024C45.7501 26.8191 45.5718 26.5387 45.2886 26.475L43.7257 26.1258C43.5899 26.0955 43.4476 26.1205 43.3301 26.1951C43.2127 26.2697 43.1296 26.3879 43.0993 26.5237L43.0874 26.5211L42.2769 30.1581C41.5948 30.0057 40.895 29.8635 40.1999 29.7232L41.0074 26.1036C41.0121 26.0883 41.0229 26.0765 41.0265 26.0606C41.0898 25.7773 40.9114 25.4969 40.6283 25.4332L39.0654 25.084C38.9295 25.0537 38.7872 25.0787 38.6698 25.1533C38.5523 25.2279 38.4693 25.3461 38.4389 25.4819L38.439 25.4832L38.4263 25.4804L37.5897 29.2282C37.0256 29.1142 36.4717 29.0029 35.9339 28.8828L35.9365 28.8691L32.3598 28.0699L32.3586 28.0752C32.2913 28.0601 32.2216 28.0585 32.1536 28.0703C32.0856 28.0821 32.0206 28.1073 31.9624 28.1443C31.9041 28.1812 31.8537 28.2294 31.814 28.2858C31.7744 28.3423 31.7462 28.4061 31.7312 28.4734L31.3442 30.2056C31.2809 30.4889 31.4591 30.7697 31.7424 30.833L31.7445 30.833L31.7428 30.8408C31.7428 30.8408 33.6661 31.2314 33.6265 31.2583C34.6766 31.4934 34.8827 32.1794 34.8648 32.7275L33.7821 37.5823L33.7784 37.6009L32.2612 44.4002C32.1415 44.7203 31.8293 45.2044 31.0953 45.0417C31.122 45.0782 29.2103 44.6201 29.2103 44.6201L29.2094 44.6224C29.2061 44.6217 29.2041 44.6191 29.2008 44.6184C28.9545 44.5633 28.719 44.6966 28.6176 44.9171L28.597 44.9112L27.6514 46.9244L27.662 46.929C27.6557 46.9474 27.643 46.9617 27.6386 46.9814C27.5778 47.2536 27.7432 47.519 28.0075 47.5957L28.0045 47.6033L31.3794 48.3561C32.0074 48.4964 32.6232 48.6448 33.229 48.784L32.3836 52.5811L32.3848 52.5814C32.3216 52.8642 32.4998 53.145 32.7831 53.2083L34.346 53.5575C34.4819 53.5877 34.6242 53.5627 34.7417 53.488C34.8591 53.4133 34.9422 53.295 34.9725 53.1592L34.9733 53.1593L35.8097 49.4089C36.5176 49.5821 37.2046 49.7412 37.8772 49.8898L37.044 53.6225L37.0453 53.6228C36.9825 53.9057 37.1603 54.1864 37.4431 54.2496L39.006 54.5988C39.1419 54.629 39.2843 54.604 39.4017 54.5293C39.5192 54.4546 39.6022 54.3363 39.6326 54.2005L39.6327 54.2001L39.636 54.2008L40.4821 50.4103C44.8976 51.1323 48.1945 50.7148 49.4865 46.7047C50.5271 43.4767 49.3043 41.6593 46.9618 40.5136ZM39.5802 32.7853C41.0441 33.1116 45.7467 33.6718 45.0656 36.7275C44.4113 39.6575 39.8887 38.2897 38.4248 37.9635L39.5802 32.7853ZM36.5681 46.2861L37.8427 40.5765C39.6003 40.9692 45.2247 41.6932 44.4755 45.0517C43.7584 48.2724 38.3264 46.676 36.5681 46.2861Z" fill="white"/>
</svg>