<svg width="66" height="66" viewBox="0 0 66 66" fill="none" xmlns="http://www.w3.org/2000/svg">
  <path d="M26.4114 28.6524C26.4159 28.4662 26.4589 28.2829 26.5375 28.1141C26.6161 27.9452 26.7287 27.7943 26.8683 27.671C27.0078 27.5476 27.1713 27.4543 27.3486 27.397C27.5258 27.3397 27.7129 27.3195 27.8983 27.3378H38.121L34.7504 30.3275L35.6835 31.3794L40.4402 27.1607C40.5146 27.0947 40.5742 27.0137 40.6149 26.9231C40.6557 26.8324 40.6768 26.7341 40.6768 26.6347C40.6768 26.5353 40.6557 26.437 40.6149 26.3464C40.5742 26.2557 40.5146 26.1747 40.4402 26.1087L35.6869 21.89L34.7538 22.9419L38.1223 25.9316H27.8983C27.5275 25.9087 27.1559 25.9619 26.8064 26.0879C26.4568 26.2138 26.1367 26.41 25.8658 26.6642C25.5948 26.9184 25.3787 27.2253 25.2307 27.5661C25.0827 27.9069 25.0059 28.2744 25.0051 28.6459L25.0034 30.8535H26.4097L26.4114 28.6524Z" fill="#B38CFC"/>
  <path d="M39.2683 37.2732C39.2637 37.4595 39.2208 37.6427 39.1422 37.8116C39.0636 37.9805 38.951 38.1313 38.8114 38.2547C38.6719 38.3781 38.5084 38.4713 38.3311 38.5287C38.1539 38.586 37.9667 38.6061 37.7814 38.5878H27.5587L30.9297 35.5982L29.9965 34.5462L25.2395 38.765C25.1651 38.8309 25.1056 38.9119 25.0648 39.0026C25.024 39.0933 25.0029 39.1915 25.0029 39.291C25.0029 39.3904 25.024 39.4886 25.0648 39.5793C25.1056 39.67 25.1651 39.751 25.2395 39.8169L29.9928 44.0357L30.9259 42.9837L27.5573 39.9941H37.7813C38.1522 40.017 38.5238 39.9638 38.8733 39.8378C39.2228 39.7118 39.5429 39.5157 39.8139 39.2615C40.0848 39.0073 40.301 38.7003 40.449 38.3596C40.597 38.0188 40.6737 37.6513 40.6745 37.2798L40.6762 35.0722H39.27L39.2683 37.2732Z" fill="#E8DDFE"/>
</svg>