<svg xmlns="http://www.w3.org/2000/svg" fill="none" viewBox="0 0 88 88">
  <defs/>
  <path fill="#B38CFC" d="M49.885 38.794h-.403v-3.159a5.861 5.861 0 00-6.048-5.323c-2.635 0-5.302 1.703-5.302 4.95l-.032 3.532h-.903a3.635 3.635 0 00-3.857 3.628v11.25a4.24 4.24 0 004.355 3.872h12.683a3.635 3.635 0 003.857-3.627l.005-11.25a4.24 4.24 0 00-4.355-3.873zm-9.878-3.524a3.146 3.146 0 013.43-3.083 4.06 4.06 0 014.17 3.448v3.16h-7.631l.03-3.525zM52.36 53.916a1.804 1.804 0 01-1.982 1.753H37.695a2.397 2.397 0 01-2.48-1.997v-11.25a1.806 1.806 0 011.982-1.753h12.688a2.396 2.396 0 012.48 1.997l-.005 11.25z"/>
  <path fill="#E8DDFE" d="M44.844 43.205a4.373 4.373 0 00-3.055.179 3.456 3.456 0 00-1.521 5.119 4.38 4.38 0 002.462 1.818c.04.012.079.016.118.026v2.041h1.875v-1.936a3.681 3.681 0 003.031-2.51 3.947 3.947 0 00-2.91-4.737zm1.113 4.203a2.09 2.09 0 01-2.694 1.116 2.508 2.508 0 01-1.415-1.03 1.587 1.587 0 01.715-2.402c.306-.137.637-.206.973-.204.262 0 .523.04.774.114a2.086 2.086 0 011.647 2.405z"/>
</svg>