<svg width="49" height="49" viewBox="0 0 49 49" fill="none" xmlns="http://www.w3.org/2000/svg">
  <rect width="49" height="49" rx="24.5" fill="#BEBEBE"/>
  <g clip-path="url(#clip0)">
  <rect x="10.2109" y="10.2083" width="28.5833" height="28.5833" rx="14.2917" fill="white"/>
  <path d="M24.5026 10.2083C21.676 10.2083 18.9128 11.0464 16.5626 12.6168C14.2123 14.1872 12.3805 16.4193 11.2988 19.0307C10.2171 21.6422 9.93411 24.5158 10.4856 27.2881C11.037 30.0604 12.3982 32.6069 14.3969 34.6056C16.3956 36.6044 18.9421 37.9655 21.7144 38.517C24.4868 39.0684 27.3603 38.7854 29.9718 37.7037C32.5833 36.622 34.8153 34.7902 36.3857 32.4399C37.9561 30.0897 38.7943 27.3265 38.7943 24.4999C38.7943 20.7095 37.2886 17.0744 34.6083 14.3942C31.9281 11.714 28.293 10.2083 24.5026 10.2083ZM24.1906 14.5886H27.268C27.331 14.5887 27.3931 14.6034 27.4494 14.6314C27.5058 14.6594 27.5549 14.7001 27.593 14.7503C27.631 14.8004 27.657 14.8587 27.6688 14.9205C27.6806 14.9823 27.678 15.0461 27.6611 15.1067L25.2434 23.3459L27.5122 22.6527L27.0263 24.3022L24.7348 24.9692L23.2485 29.9879H31.1994C31.2625 29.9883 31.3245 30.0032 31.3808 30.0315C31.4371 30.0598 31.4861 30.1008 31.5239 30.1512C31.5618 30.2016 31.5874 30.2601 31.5989 30.322C31.6104 30.384 31.6074 30.4478 31.5901 30.5084L30.8969 32.8903C30.8638 33.0036 30.7948 33.1032 30.7003 33.174C30.6058 33.2449 30.491 33.2832 30.3729 33.2833H18.2298L20.2818 26.3495L18.0118 27.0403L18.512 25.4193L20.7868 24.7286L23.6713 14.9864C23.7029 14.8725 23.7709 14.772 23.8648 14.7002C23.9587 14.6284 24.0735 14.5893 24.1918 14.5886H24.1906Z" fill="#BEBEBE"/>
  </g>
  <defs>
  <clipPath id="clip0">
  <rect x="10.2109" y="10.2083" width="28.5833" height="28.5833" rx="14.2917" fill="white"/>
  </clipPath>
  </defs>
</svg>