<svg width="67" height="67" viewBox="0 0 67 67" fill="none" xmlns="http://www.w3.org/2000/svg">
  <rect width="67" height="67" rx="33.5" fill="#2D77C7"/>
  <path d="M31.5698 24.138V22.634C31.5698 22.2539 31.7216 21.8895 31.9917 21.6208C32.2618 21.352 32.6282 21.2011 33.0102 21.2011C33.3922 21.2011 33.7586 21.352 34.0287 21.6208C34.2989 21.8895 34.4506 22.2539 34.4506 22.634V24.0363C35.5882 24.118 36.6709 24.555 37.5441 25.285C38.4173 26.0149 39.0365 27.0005 39.3133 28.1012C39.3625 28.3194 39.3238 28.5481 39.2053 28.7381C39.0869 28.9281 38.8982 29.0643 38.6799 29.1175H37.7196C37.4107 29.1159 37.1085 29.0272 36.8481 28.8617C36.5878 28.6962 36.3799 28.4607 36.2486 28.1825C35.9247 27.6254 35.4455 27.1735 34.8691 26.8814C34.2926 26.5893 33.6435 26.4694 33 26.5363C30.9569 26.5363 29.731 27.7964 29.731 28.9345C29.731 30.0727 30.6913 30.7434 32.7344 31.2515L34.7775 31.6987C38.3121 32.4507 39.8036 33.9344 39.8036 36.5156C39.7824 37.9032 39.2175 39.2278 38.2291 40.2072C37.2407 41.1867 35.9069 41.7435 34.5119 41.7593V43.4868C34.5119 43.8669 34.3602 44.2313 34.09 44.5C33.8199 44.7688 33.4535 44.9197 33.0715 44.9197C32.6895 44.9197 32.3231 44.7688 32.053 44.5C31.7829 44.2313 31.6311 43.8669 31.6311 43.4868V41.7796C30.3974 41.7609 29.2047 41.3358 28.2398 40.5709C27.2749 39.8059 26.5922 38.7442 26.2985 37.5521C26.2808 37.46 26.2815 37.3653 26.3007 37.2735C26.3199 37.1817 26.3572 37.0945 26.4103 37.0171C26.4635 36.9396 26.5315 36.8734 26.6105 36.8222C26.6895 36.771 26.7779 36.7359 26.8706 36.7188H28.076C28.3377 36.7207 28.5936 36.7962 28.8141 36.9364C29.0346 37.0766 29.2108 37.276 29.3224 37.5115C29.699 38.1321 30.2437 38.6347 30.8941 38.9617C31.5445 39.2888 32.2743 39.4272 33 39.361C35.0431 39.361 36.6163 38.1415 36.6163 36.9017C36.6163 35.6619 35.7174 34.9303 33.5312 34.4221L31.2838 33.8937C28.076 33.223 26.5641 31.6174 26.5641 29.1581C26.6186 27.851 27.1623 26.6113 28.0884 25.6825C29.0146 24.7537 30.2563 24.2028 31.5698 24.138ZM15 32.9994C15.0023 29.2445 16.1939 25.5858 18.4056 22.543C20.6172 19.5001 23.7364 17.2278 27.3201 16.0488C27.4502 16.0031 27.5894 15.9892 27.7261 16.0084C27.8627 16.0276 27.9927 16.0792 28.1049 16.159C28.2172 16.2388 28.3085 16.3443 28.371 16.4667C28.4336 16.589 28.4656 16.7246 28.4642 16.8618V17.3293C28.4636 17.7048 28.3505 18.0715 28.1395 18.3828C27.9284 18.6941 27.6289 18.9359 27.2792 19.0772C24.4998 20.1932 22.119 22.11 20.4425 24.5817C18.766 27.0533 17.8702 29.967 17.8702 32.9486C17.8702 35.9303 18.766 38.8439 20.4425 41.3156C22.119 43.7872 24.4998 45.704 27.2792 46.8201C27.6306 46.9649 27.9307 47.2103 28.1417 47.5251C28.3527 47.8399 28.4649 48.2099 28.4642 48.5883V49.0151C28.4642 49.2577 28.3674 49.4903 28.195 49.6618C28.0225 49.8333 27.7887 49.9297 27.5448 49.9297H27.2588C23.6898 48.7414 20.5863 46.4677 18.3867 43.4298C16.187 40.3919 15.0023 36.7433 15 32.9994ZM51 32.9994C51.0034 36.7443 49.8237 40.3956 47.6276 43.4372C45.4315 46.4789 42.3301 48.7571 38.7616 49.95C38.6181 49.9981 38.4651 50.0118 38.3153 49.9898C38.1654 49.9679 38.0229 49.911 37.8993 49.8238C37.7758 49.7366 37.6748 49.6215 37.6045 49.488C37.5342 49.3545 37.4966 49.2064 37.4949 49.0557V48.7102C37.5052 48.324 37.6261 47.9487 37.8432 47.6283C38.0603 47.3079 38.3647 47.0558 38.7208 46.9014C41.4939 45.7821 43.8682 43.8651 45.5399 41.3958C47.2116 38.9265 48.1045 36.0171 48.1045 33.0401C48.1045 30.063 47.2116 27.1537 45.5399 24.6844C43.8682 22.2151 41.4939 20.2981 38.7208 19.1788C38.3578 19.026 38.047 18.772 37.8259 18.4474C37.6047 18.1229 37.4827 17.7416 37.4745 17.3496V17.0447C37.4745 16.5163 37.9035 16.0895 38.4347 16.0895H38.7412C42.3069 17.2767 45.408 19.5473 47.6074 22.5811C49.8067 25.615 50.9934 29.259 51 32.9994Z" fill="white"/>
</svg>